<svg width="99" height="99" viewBox="0 0 99 99" fill="none" xmlns="http://www.w3.org/2000/svg">
<g filter="url(#filter0_i_732_199)">
<path d="M13.1014 31.4584L22.3925 15.7413C22.7855 15.0806 23.3396 14.5337 24.0013 14.1534C24.6631 13.7731 25.4102 13.5722 26.1706 13.5701H47.5848V31.4584H13.1014ZM51.1096 31.4584H85.5931L76.302 15.7413C75.9089 15.0806 75.3548 14.5337 74.6931 14.1534C74.0314 13.7731 73.2843 13.5722 72.5238 13.5701H51.1096V31.4584ZM86.3575 35.0361V80.6513C86.3562 81.837 85.8916 82.9737 85.0656 83.8121C84.2396 84.6505 83.1197 85.122 81.9515 85.1234H16.7429C15.5748 85.122 14.4548 84.6505 13.6288 83.8121C12.8028 82.9737 12.3382 81.837 12.3369 80.6513V35.0361H86.3575Z" fill="url(#paint0_linear_732_199)"/>
</g>
<g filter="url(#filter1_d_732_199)">
<path d="M37.0107 51.8145H61.6843" stroke="white" stroke-width="4" stroke-miterlimit="10" stroke-linecap="round"/>
</g>
<defs>
<filter id="filter0_i_732_199" x="12.3369" y="11.5701" width="74.0205" height="73.5532" filterUnits="userSpaceOnUse" color-interpolation-filters="sRGB">
<feFlood flood-opacity="0" result="BackgroundImageFix"/>
<feBlend mode="normal" in="SourceGraphic" in2="BackgroundImageFix" result="shape"/>
<feColorMatrix in="SourceAlpha" type="matrix" values="0 0 0 0 0 0 0 0 0 0 0 0 0 0 0 0 0 0 127 0" result="hardAlpha"/>
<feOffset dy="-2"/>
<feGaussianBlur stdDeviation="3"/>
<feComposite in2="hardAlpha" operator="arithmetic" k2="-1" k3="1"/>
<feColorMatrix type="matrix" values="0 0 0 0 1 0 0 0 0 0.721077 0 0 0 0 0.0766668 0 0 0 1 0"/>
<feBlend mode="normal" in2="shape" result="effect1_innerShadow_732_199"/>
</filter>
<filter id="filter1_d_732_199" x="31.2107" y="47.8145" width="36.2738" height="11.6" filterUnits="userSpaceOnUse" color-interpolation-filters="sRGB">
<feFlood flood-opacity="0" result="BackgroundImageFix"/>
<feColorMatrix in="SourceAlpha" type="matrix" values="0 0 0 0 0 0 0 0 0 0 0 0 0 0 0 0 0 0 127 0" result="hardAlpha"/>
<feOffset dy="1.8"/>
<feGaussianBlur stdDeviation="1.9"/>
<feComposite in2="hardAlpha" operator="out"/>
<feColorMatrix type="matrix" values="0 0 0 0 1 0 0 0 0 0.607843 0 0 0 0 0.0588235 0 0 0 0.6 0"/>
<feBlend mode="normal" in2="BackgroundImageFix" result="effect1_dropShadow_732_199"/>
<feBlend mode="normal" in="SourceGraphic" in2="effect1_dropShadow_732_199" result="shape"/>
</filter>
<linearGradient id="paint0_linear_732_199" x1="69.601" y1="84.539" x2="29.9608" y2="11.6127" gradientUnits="userSpaceOnUse">
<stop stop-color="#FFD911"/>
<stop offset="1" stop-color="#FFEA86"/>
</linearGradient>
</defs>
</svg>
