<svg width="34" height="33" viewBox="0 0 34 33" fill="none" xmlns="http://www.w3.org/2000/svg">
<path d="M17.1609 32.1C17.442 32.1 17.684 32.0059 17.8559 31.8339C18.0279 31.6619 18.122 31.4199 18.122 31.1389C18.122 30.8578 18.0279 30.6158 17.8559 30.4439C17.684 30.2719 17.442 30.1778 17.1609 30.1778H5.10536C3.78281 30.1778 2.62203 29.017 2.62203 27.6944V5.30556C2.62203 3.98301 3.78281 2.82222 5.10536 2.82222H24.0498C25.3724 2.82222 26.5331 3.98301 26.5331 5.30556V17.3611C26.5331 17.6422 26.6273 17.8842 26.7992 18.0561C26.9712 18.2281 27.2132 18.3222 27.4942 18.3222C27.7753 18.3222 28.0173 18.2281 28.1893 18.0561C28.3612 17.8842 28.4554 17.6422 28.4554 17.3611V5.30556C28.4554 2.83419 26.3388 0.9 23.8776 0.9H5.10536C2.81384 0.9 0.699805 2.83665 0.699805 5.30556V27.6944C0.699805 30.1633 2.81384 32.1 5.10536 32.1H17.1609ZM23.2887 8.75C23.2887 8.46894 23.1946 8.22696 23.0226 8.05498C22.8506 7.88301 22.6086 7.78889 22.3276 7.78889H6.82758C6.54652 7.78889 6.30454 7.88301 6.13257 8.05498C5.96059 8.22696 5.86647 8.46894 5.86647 8.75C5.86647 9.03106 5.96059 9.27304 6.13257 9.44502C6.30454 9.61699 6.54652 9.71111 6.82758 9.71111H22.3276C22.6086 9.71111 22.8506 9.61699 23.0226 9.44502C23.1946 9.27304 23.2887 9.03106 23.2887 8.75ZM21.5665 13.9167C21.5665 13.6356 21.4723 13.3936 21.3004 13.2217C21.1284 13.0497 20.8864 12.9556 20.6054 12.9556H6.82758C6.54652 12.9556 6.30454 13.0497 6.13257 13.2217C5.96059 13.3936 5.86647 13.6356 5.86647 13.9167C5.86647 14.1977 5.96059 14.4397 6.13257 14.6117C6.30454 14.7837 6.54652 14.8778 6.82758 14.8778H20.6054C20.8864 14.8778 21.1284 14.7837 21.3004 14.6117C21.4723 14.4397 21.5665 14.1977 21.5665 13.9167ZM6.82758 18.1222C6.54652 18.1222 6.30454 18.2163 6.13257 18.3883C5.96059 18.5603 5.86647 18.8023 5.86647 19.0833C5.86647 19.3644 5.96059 19.6064 6.13257 19.7783C6.30454 19.9503 6.54652 20.0444 6.82758 20.0444H18.8831C19.1642 20.0444 19.4062 19.9503 19.5782 19.7783C19.7501 19.6064 19.8442 19.3644 19.8442 19.0833C19.8442 18.8023 19.7501 18.5603 19.5782 18.3883C19.4062 18.2163 19.1642 18.1222 18.8831 18.1222H6.82758Z" fill="white" stroke="white" stroke-width="0.2" stroke-linejoin="round"/>
<path d="M23.1758 32.8L18.1695 27.0399C18.0539 26.9203 17.9617 26.7773 17.8982 26.6191C17.8347 26.4609 17.8013 26.2908 17.7999 26.1186C17.7984 25.9464 17.829 25.7756 17.8898 25.6162C17.9506 25.4569 18.0404 25.3121 18.1539 25.1903C18.2675 25.0686 18.4026 24.9723 18.5512 24.9071C18.6999 24.8419 18.8592 24.8092 19.0198 24.8107C19.1804 24.8123 19.3391 24.8481 19.4867 24.9162C19.6342 24.9842 19.7676 25.0831 19.8791 25.207L23.1758 29.004L31.2357 20.3632C31.4637 20.1274 31.7691 19.997 32.0859 20.0001C32.4028 20.0031 32.7059 20.1394 32.93 20.3797C33.154 20.6199 33.2812 20.9448 33.284 21.2845C33.2869 21.6242 33.1653 21.9516 32.9453 22.1961L23.1758 32.8Z" fill="white"/>
</svg>
