<svg width="99" height="99" viewBox="0 0 99 99" fill="none" xmlns="http://www.w3.org/2000/svg">
<g filter="url(#filter0_i_732_50)">
<path d="M91.5479 61.644H8.45167C5.0832 61.644 2.33691 58.8978 2.33691 55.5293V14.7C2.33691 11.3315 5.0832 8.58521 8.45167 8.58521H91.5479C94.9164 8.58521 97.6626 11.3315 97.6626 14.7V55.5293C97.6626 58.8978 94.9164 61.644 91.5479 61.644Z" fill="url(#paint0_linear_732_50)"/>
</g>
<g filter="url(#filter1_d_732_50)">
<path d="M13.5361 18.4329H25.4009" stroke="white" stroke-width="4" stroke-miterlimit="10" stroke-linecap="round"/>
</g>
<path d="M87.2991 51.7313H13.3214C11.7766 51.7313 10.5107 50.4654 10.5107 48.9207V45.2518C10.5107 43.707 11.7766 42.4412 13.3214 42.4412H87.2991C88.8439 42.4412 90.1097 43.707 90.1097 45.2518V48.9207C90.1097 50.4654 88.8439 51.7313 87.2991 51.7313Z" fill="#277DFF"/>
<path d="M20.5078 47.8508H50.0517V88.4012H9.71582C9.73728 88.3798 22.2457 76.515 20.5078 47.8508Z" fill="#B7E2FF"/>
<path d="M79.4882 47.8508H49.9443V88.4012H90.2803C90.2803 88.3798 77.7718 76.515 79.4882 47.8508Z" fill="#D9F0FE"/>
<defs>
<filter id="filter0_i_732_50" x="2.33691" y="6.58521" width="95.3252" height="55.0588" filterUnits="userSpaceOnUse" color-interpolation-filters="sRGB">
<feFlood flood-opacity="0" result="BackgroundImageFix"/>
<feBlend mode="normal" in="SourceGraphic" in2="BackgroundImageFix" result="shape"/>
<feColorMatrix in="SourceAlpha" type="matrix" values="0 0 0 0 0 0 0 0 0 0 0 0 0 0 0 0 0 0 127 0" result="hardAlpha"/>
<feOffset dy="-2"/>
<feGaussianBlur stdDeviation="3"/>
<feComposite in2="hardAlpha" operator="arithmetic" k2="-1" k3="1"/>
<feColorMatrix type="matrix" values="0 0 0 0 0.4975 0 0 0 0 0.671664 0 0 0 0 1 0 0 0 0.8 0"/>
<feBlend mode="normal" in2="shape" result="effect1_innerShadow_732_50"/>
</filter>
<filter id="filter1_d_732_50" x="7.53613" y="12.4329" width="23.8652" height="12" filterUnits="userSpaceOnUse" color-interpolation-filters="sRGB">
<feFlood flood-opacity="0" result="BackgroundImageFix"/>
<feColorMatrix in="SourceAlpha" type="matrix" values="0 0 0 0 0 0 0 0 0 0 0 0 0 0 0 0 0 0 127 0" result="hardAlpha"/>
<feOffset/>
<feGaussianBlur stdDeviation="2"/>
<feComposite in2="hardAlpha" operator="out"/>
<feColorMatrix type="matrix" values="0 0 0 0 0.152941 0 0 0 0 0.490196 0 0 0 0 1 0 0 0 0.6 0"/>
<feBlend mode="normal" in2="BackgroundImageFix" result="effect1_dropShadow_732_50"/>
<feBlend mode="normal" in="SourceGraphic" in2="effect1_dropShadow_732_50" result="shape"/>
</filter>
<linearGradient id="paint0_linear_732_50" x1="90.8677" y1="50.5808" x2="10.0619" y2="14.1874" gradientUnits="userSpaceOnUse">
<stop stop-color="#4C89FE"/>
<stop offset="1" stop-color="#A2DDFF"/>
</linearGradient>
</defs>
</svg>
