<svg width="100" height="99" viewBox="0 0 100 99" fill="none" xmlns="http://www.w3.org/2000/svg">
<g filter="url(#filter0_i_732_61)">
<path fill-rule="evenodd" clip-rule="evenodd" d="M92.0594 74.156H29.4541C29.2917 74.156 29.1325 74.142 28.9777 74.1151H7.88514C6.51794 74.1151 5.41602 73.0132 5.41602 71.646V52.4643C5.41602 51.7923 5.68219 51.1844 6.1152 50.74L14.204 30.8517C14.4918 28.9026 16.2772 27.6679 18.0451 27.6679H26.6789V19.182C26.6789 16.0803 29.1888 13.5703 32.2905 13.5703H89.223C92.3247 13.5703 94.8346 16.0803 94.8346 19.182V71.3808C94.8346 72.9112 93.5898 74.156 92.0594 74.156ZM26.6789 32.3289H18.6349L11.4499 49.9951H26.6789V32.3289Z" fill="url(#paint0_linear_732_61)"/>
</g>
<path d="M15.7998 74.1568C15.7998 67.3004 21.3706 61.7295 28.227 61.7295C35.0834 61.7295 40.6542 67.3004 40.6542 74.1568" stroke="#FFDEDE" stroke-width="3.88416" stroke-miterlimit="10"/>
<path d="M28.2892 84.3585C34.003 84.3585 38.635 79.7265 38.635 74.0126C38.635 68.2988 34.003 63.6667 28.2892 63.6667C22.5753 63.6667 17.9434 68.2988 17.9434 74.0126C17.9434 79.7265 22.5753 84.3585 28.2892 84.3585Z" fill="#FFB7B6"/>
<path d="M60.876 74.1568C60.876 67.3004 66.4468 61.7295 73.3032 61.7295C80.1596 61.7295 85.7304 67.3004 85.7304 74.1568" stroke="#FFDEDE" stroke-width="3.88416" stroke-miterlimit="10"/>
<path d="M73.3663 84.3585C79.0801 84.3585 83.7121 79.7265 83.7121 74.0126C83.7121 68.2988 79.0801 63.6667 73.3663 63.6667C67.6525 63.6667 63.0205 68.2988 63.0205 74.0126C63.0205 79.7265 67.6525 84.3585 73.3663 84.3585Z" fill="#FFB7B6"/>
<g filter="url(#filter1_d_732_61)">
<path d="M76.2236 23.124H86.9571" stroke="white" stroke-width="4" stroke-miterlimit="10" stroke-linecap="round"/>
</g>
<defs>
<filter id="filter0_i_732_61" x="5.41602" y="11.5703" width="89.4189" height="62.5857" filterUnits="userSpaceOnUse" color-interpolation-filters="sRGB">
<feFlood flood-opacity="0" result="BackgroundImageFix"/>
<feBlend mode="normal" in="SourceGraphic" in2="BackgroundImageFix" result="shape"/>
<feColorMatrix in="SourceAlpha" type="matrix" values="0 0 0 0 0 0 0 0 0 0 0 0 0 0 0 0 0 0 127 0" result="hardAlpha"/>
<feOffset dy="-2"/>
<feGaussianBlur stdDeviation="3"/>
<feComposite in2="hardAlpha" operator="arithmetic" k2="-1" k3="1"/>
<feColorMatrix type="matrix" values="0 0 0 0 1 0 0 0 0 0.243333 0 0 0 0 0.33459 0 0 0 0.8 0"/>
<feBlend mode="normal" in2="shape" result="effect1_innerShadow_732_61"/>
</filter>
<filter id="filter1_d_732_61" x="72.3389" y="21.124" width="18.5028" height="7.76938" filterUnits="userSpaceOnUse" color-interpolation-filters="sRGB">
<feFlood flood-opacity="0" result="BackgroundImageFix"/>
<feColorMatrix in="SourceAlpha" type="matrix" values="0 0 0 0 0 0 0 0 0 0 0 0 0 0 0 0 0 0 127 0" result="hardAlpha"/>
<feOffset dy="1.88469"/>
<feGaussianBlur stdDeviation="0.942346"/>
<feComposite in2="hardAlpha" operator="out"/>
<feColorMatrix type="matrix" values="0 0 0 0 1 0 0 0 0 0.192157 0 0 0 0 0.286275 0 0 0 1 0"/>
<feBlend mode="normal" in2="BackgroundImageFix" result="effect1_dropShadow_732_61"/>
<feBlend mode="normal" in="SourceGraphic" in2="effect1_dropShadow_732_61" result="shape"/>
</filter>
<linearGradient id="paint0_linear_732_61" x1="85.5372" y1="65.541" x2="23.2807" y2="28.1873" gradientUnits="userSpaceOnUse">
<stop stop-color="#FF2D46"/>
<stop offset="1" stop-color="#FFA5AA"/>
</linearGradient>
</defs>
</svg>
