<svg width="100" height="99" viewBox="0 0 100 99" fill="none" xmlns="http://www.w3.org/2000/svg">
<path d="M86.3588 87.6842H13.2414C9.88508 87.6842 7.16602 84.9651 7.16602 81.6087V17.1785C7.16602 13.8221 9.88508 11.103 13.2414 11.103H86.3588C89.7151 11.103 92.4342 13.8221 92.4342 17.1785V81.5875C92.4342 84.9651 89.7151 87.6842 86.3588 87.6842Z" fill="url(#paint0_linear_732_97)"/>
<path d="M84.0867 81.8853H52.4775V16.9028H84.0867C85.9985 16.9028 87.528 18.4536 87.528 20.3442V78.4227C87.5492 80.3346 85.9985 81.8853 84.0867 81.8853Z" fill="#FFCFCE"/>
<path d="M15.7062 81.8853H47.3153V16.9028H15.7062C13.7943 16.9028 12.2649 18.4536 12.2649 20.3442V78.4227C12.2436 80.3346 13.7943 81.8853 15.7062 81.8853Z" fill="#C90C01"/>
<path opacity="0.6" d="M12.2223 19.7692C12.2223 19.7692 12.5834 17.8574 14.0279 18.3672C15.4724 18.877 26.5611 28.1178 26.5611 28.1178L26.4549 81.7777L15.005 81.8839C15.005 81.8839 12.0098 81.8839 12.116 77.6566C12.2223 73.4504 12.2223 19.7692 12.2223 19.7692Z" fill="url(#paint1_linear_732_97)"/>
<g filter="url(#filter0_d_732_97)">
<path d="M60.2139 41.9448L60.2139 55.9841" stroke="white" stroke-width="4" stroke-miterlimit="10" stroke-linecap="round"/>
</g>
<g opacity="0.9">
<circle cx="14.5677" cy="20.9724" r="1.23368" fill="white"/>
<circle cx="14.5677" cy="27.1409" r="1.23368" fill="white"/>
<circle cx="14.5677" cy="33.3091" r="1.23368" fill="white"/>
<circle cx="14.5677" cy="39.4776" r="1.23368" fill="white"/>
<circle cx="14.5677" cy="45.646" r="1.23368" fill="white"/>
<circle cx="14.5677" cy="51.8142" r="1.23368" fill="white"/>
<circle cx="14.5677" cy="57.9827" r="1.23368" fill="white"/>
<circle cx="14.5677" cy="64.1512" r="1.23368" fill="white"/>
<circle cx="14.5677" cy="70.3194" r="1.23368" fill="white"/>
<circle cx="14.5677" cy="76.4878" r="1.23368" fill="white"/>
<circle cx="19.5022" cy="20.9724" r="1.23368" fill="white"/>
<circle cx="19.5022" cy="27.1409" r="1.23368" fill="white"/>
<circle cx="19.5022" cy="33.3091" r="1.23368" fill="white"/>
<circle cx="19.5022" cy="39.4776" r="1.23368" fill="white"/>
<circle cx="19.5022" cy="45.646" r="1.23368" fill="white"/>
<circle cx="19.5022" cy="51.8142" r="1.23368" fill="white"/>
<circle cx="19.5022" cy="57.9827" r="1.23368" fill="white"/>
<circle cx="19.5022" cy="64.1512" r="1.23368" fill="white"/>
<circle cx="19.5022" cy="70.3194" r="1.23368" fill="white"/>
<circle cx="19.5022" cy="76.4878" r="1.23368" fill="white"/>
<circle cx="24.4368" cy="20.9724" r="1.23368" fill="white"/>
<circle cx="24.4368" cy="27.1409" r="1.23368" fill="white"/>
<circle cx="24.4368" cy="33.3091" r="1.23368" fill="white"/>
<circle cx="24.4368" cy="39.4776" r="1.23368" fill="white"/>
<circle cx="24.4368" cy="45.646" r="1.23368" fill="white"/>
<circle cx="24.4368" cy="51.8142" r="1.23368" fill="white"/>
<circle cx="24.4368" cy="57.9827" r="1.23368" fill="white"/>
<circle cx="24.4368" cy="64.1512" r="1.23368" fill="white"/>
<circle cx="24.4368" cy="70.3194" r="1.23368" fill="white"/>
<circle cx="24.4368" cy="76.4878" r="1.23368" fill="white"/>
<circle cx="29.3714" cy="20.9724" r="1.23368" fill="white"/>
<circle cx="29.3714" cy="27.1409" r="1.23368" fill="white"/>
<circle cx="29.3714" cy="33.3091" r="1.23368" fill="white"/>
<circle cx="29.3714" cy="39.4776" r="1.23368" fill="white"/>
<circle cx="29.3714" cy="45.646" r="1.23368" fill="white"/>
<circle cx="29.3714" cy="51.8142" r="1.23368" fill="white"/>
<circle cx="29.3714" cy="57.9827" r="1.23368" fill="white"/>
<circle cx="29.3714" cy="64.1512" r="1.23368" fill="white"/>
<circle cx="29.3714" cy="70.3194" r="1.23368" fill="white"/>
<circle cx="29.3714" cy="76.4878" r="1.23368" fill="white"/>
<circle cx="34.3069" cy="20.9724" r="1.23368" fill="white"/>
<circle cx="34.3069" cy="27.1409" r="1.23368" fill="white"/>
<circle cx="34.3069" cy="33.3091" r="1.23368" fill="white"/>
<circle cx="34.3069" cy="39.4776" r="1.23368" fill="white"/>
<circle cx="34.3069" cy="45.646" r="1.23368" fill="white"/>
<circle cx="34.3069" cy="51.8142" r="1.23368" fill="white"/>
<circle cx="34.3069" cy="57.9827" r="1.23368" fill="white"/>
<circle cx="34.3069" cy="64.1512" r="1.23368" fill="white"/>
<circle cx="34.3069" cy="70.3194" r="1.23368" fill="white"/>
<circle cx="34.3069" cy="76.4878" r="1.23368" fill="white"/>
<circle cx="39.2415" cy="20.9724" r="1.23368" fill="white"/>
<circle cx="39.2415" cy="27.1409" r="1.23368" fill="white"/>
<circle cx="39.2415" cy="33.3091" r="1.23368" fill="white"/>
<circle cx="39.2415" cy="39.4776" r="1.23368" fill="white"/>
<circle cx="39.2415" cy="45.646" r="1.23368" fill="white"/>
<circle cx="39.2415" cy="51.8142" r="1.23368" fill="white"/>
<circle cx="39.2415" cy="57.9827" r="1.23368" fill="white"/>
<circle cx="39.2415" cy="64.1512" r="1.23368" fill="white"/>
<circle cx="39.2415" cy="70.3194" r="1.23368" fill="white"/>
<circle cx="39.2415" cy="76.4878" r="1.23368" fill="white"/>
<circle cx="44.1761" cy="20.9724" r="1.23368" fill="white"/>
<circle cx="44.1761" cy="27.1409" r="1.23368" fill="white"/>
<circle cx="44.1761" cy="33.3091" r="1.23368" fill="white"/>
<circle cx="44.1761" cy="39.4776" r="1.23368" fill="white"/>
<circle cx="44.1761" cy="45.646" r="1.23368" fill="white"/>
<circle cx="44.1761" cy="51.8142" r="1.23368" fill="white"/>
<circle cx="44.1761" cy="57.9827" r="1.23368" fill="white"/>
<circle cx="44.1761" cy="64.1512" r="1.23368" fill="white"/>
<circle cx="44.1761" cy="70.3194" r="1.23368" fill="white"/>
<circle cx="44.1761" cy="76.4878" r="1.23368" fill="white"/>
</g>
<defs>
<filter id="filter0_d_732_97" x="54.2139" y="37.8248" width="12" height="26.0393" filterUnits="userSpaceOnUse" color-interpolation-filters="sRGB">
<feFlood flood-opacity="0" result="BackgroundImageFix"/>
<feColorMatrix in="SourceAlpha" type="matrix" values="0 0 0 0 0 0 0 0 0 0 0 0 0 0 0 0 0 0 127 0" result="hardAlpha"/>
<feOffset dy="1.88"/>
<feGaussianBlur stdDeviation="2"/>
<feComposite in2="hardAlpha" operator="out"/>
<feColorMatrix type="matrix" values="0 0 0 0 1 0 0 0 0 0.192157 0 0 0 0 0.286275 0 0 0 0.4 0"/>
<feBlend mode="normal" in2="BackgroundImageFix" result="effect1_dropShadow_732_97"/>
<feBlend mode="normal" in="SourceGraphic" in2="effect1_dropShadow_732_97" result="shape"/>
</filter>
<linearGradient id="paint0_linear_732_97" x1="85.7645" y1="84.0367" x2="13.5389" y2="11.103" gradientUnits="userSpaceOnUse">
<stop stop-color="#FF2D46"/>
<stop offset="1" stop-color="#FFA5AA"/>
</linearGradient>
<linearGradient id="paint1_linear_732_97" x1="19.3372" y1="18.2808" x2="19.3372" y2="81.8839" gradientUnits="userSpaceOnUse">
<stop stop-color="#FFCFCE"/>
<stop offset="1" stop-color="#FFCFCE" stop-opacity="0.59"/>
</linearGradient>
</defs>
</svg>
