<svg width="99" height="99" viewBox="0 0 99 99" fill="none" xmlns="http://www.w3.org/2000/svg">
<path d="M11.2285 28.2122C11.2285 18.7631 18.8885 11.103 28.3377 11.103C37.7868 11.103 45.4468 18.7631 45.4468 28.2122V42.1898C45.4468 43.9193 44.0448 45.3213 42.3152 45.3213H28.3377C18.8885 45.3213 11.2285 37.6613 11.2285 28.2122Z" fill="url(#paint0_linear_732_76)"/>
<path d="M11.2285 69.8318C11.2285 60.3827 18.8885 52.7227 28.3377 52.7227H42.3152C44.0448 52.7227 45.4468 54.1247 45.4468 55.8542V69.8318C45.4468 79.2809 37.7868 86.941 28.3377 86.941C18.8885 86.941 11.2285 79.2809 11.2285 69.8318Z" fill="#C9AAFF"/>
<path d="M52.8496 28.2122C52.8496 18.7631 60.5096 11.103 69.9588 11.103C79.4079 11.103 87.0679 18.7631 87.0679 28.2122C87.0679 37.6613 79.4079 45.3213 69.9588 45.3213H55.9812C54.2517 45.3213 52.8496 43.9193 52.8496 42.1898V28.2122Z" fill="#C9AAFF"/>
<path d="M52.8496 55.8542C52.8496 54.1247 54.2517 52.7227 55.9812 52.7227H69.9588C79.4079 52.7227 87.0679 60.3827 87.0679 69.8318C87.0679 79.2809 79.4079 86.941 69.9588 86.941C60.5096 86.941 52.8496 79.2809 52.8496 69.8318V55.8542Z" fill="#C9AAFF"/>
<defs>
<linearGradient id="paint0_linear_732_76" x1="28.3377" y1="11.103" x2="28.3377" y2="45.3213" gradientUnits="userSpaceOnUse">
<stop stop-color="#755EFD"/>
<stop offset="1" stop-color="#A575F9"/>
</linearGradient>
</defs>
</svg>
