<svg width="100" height="99" viewBox="0 0 100 99" fill="none" xmlns="http://www.w3.org/2000/svg">
<g filter="url(#filter0_i_732_230)">
<path d="M51.5485 54.0157C66.9715 54.0157 79.5198 66.3755 79.5198 81.5649V83.1865C79.5176 91.0308 67.3763 91.2835 52.9944 91.2921H33.5722C18.6633 91.2835 7.10254 91.0308 7.10254 83.1865V81.5649C7.10254 66.3755 19.6508 54.0178 35.0738 54.0178H51.5485V54.0157ZM42.4854 8.63574C54.7316 8.63574 64.688 18.4465 64.688 30.5128C64.688 42.5791 54.7274 52.3941 42.4854 52.3941C30.2413 52.3941 20.2849 42.5791 20.2849 30.5128C20.2849 18.4486 30.2413 8.63574 42.4854 8.63574Z" fill="url(#paint0_linear_732_230)"/>
</g>
<g filter="url(#filter1_d_732_230)">
<rect x="31.7764" y="66.6187" width="22.2062" height="7.40206" rx="2" fill="white"/>
<rect x="46.5801" y="59.2166" width="22.2062" height="7.40206" rx="2" transform="rotate(90 46.5801 59.2166)" fill="white"/>
</g>
<g filter="url(#filter2_i_732_230)">
<path d="M68.8199 54.0157C84.2428 54.0157 96.7911 66.3755 96.7911 81.5649V83.1865C96.789 91.0308 84.6477 91.2835 70.2658 91.2921H50.8436C35.9348 91.2835 24.374 91.0308 24.374 83.1865V81.5649C24.374 66.3755 36.9223 54.0178 52.3452 54.0178H68.8199V54.0157ZM59.7568 8.63574C72.003 8.63574 81.9594 18.4465 81.9594 30.5128C81.9594 42.5791 71.9987 52.3941 59.7568 52.3941C47.5127 52.3941 37.5563 42.5791 37.5563 30.5128C37.5563 18.4486 47.5127 8.63574 59.7568 8.63574Z" fill="url(#paint1_linear_732_230)"/>
</g>
<g filter="url(#filter3_d_732_230)">
<rect x="49.0479" y="67.8523" width="22.2061" height="7.40206" rx="2" fill="white"/>
<rect x="63.8516" y="60.4502" width="22.2062" height="7.40205" rx="2" transform="rotate(90 63.8516 60.4502)" fill="white"/>
</g>
<g filter="url(#filter4_d_732_230)">
<path d="M67.532 41.6548C67.532 41.6548 61.5603 45.9855 52.7495 41.9374" stroke="white" stroke-width="4" stroke-miterlimit="10" stroke-linecap="round" shape-rendering="crispEdges"/>
</g>
<defs>
<filter id="filter0_i_732_230" x="7.10254" y="6.63574" width="72.417" height="84.6562" filterUnits="userSpaceOnUse" color-interpolation-filters="sRGB">
<feFlood flood-opacity="0" result="BackgroundImageFix"/>
<feBlend mode="normal" in="SourceGraphic" in2="BackgroundImageFix" result="shape"/>
<feColorMatrix in="SourceAlpha" type="matrix" values="0 0 0 0 0 0 0 0 0 0 0 0 0 0 0 0 0 0 127 0" result="hardAlpha"/>
<feOffset dy="-2"/>
<feGaussianBlur stdDeviation="3"/>
<feComposite in2="hardAlpha" operator="arithmetic" k2="-1" k3="1"/>
<feColorMatrix type="matrix" values="0 0 0 0 1 0 0 0 0 0.476667 0 0 0 0 0.911495 0 0 0 1 0"/>
<feBlend mode="normal" in2="shape" result="effect1_innerShadow_732_230"/>
</filter>
<filter id="filter1_d_732_230" x="29.0764" y="57.4166" width="27.6061" height="27.6063" filterUnits="userSpaceOnUse" color-interpolation-filters="sRGB">
<feFlood flood-opacity="0" result="BackgroundImageFix"/>
<feColorMatrix in="SourceAlpha" type="matrix" values="0 0 0 0 0 0 0 0 0 0 0 0 0 0 0 0 0 0 127 0" result="hardAlpha"/>
<feOffset dy="0.9"/>
<feGaussianBlur stdDeviation="1.35"/>
<feComposite in2="hardAlpha" operator="out"/>
<feColorMatrix type="matrix" values="0 0 0 0 1 0 0 0 0 0.478431 0 0 0 0 0.909804 0 0 0 0.75 0"/>
<feBlend mode="normal" in2="BackgroundImageFix" result="effect1_dropShadow_732_230"/>
<feBlend mode="normal" in="SourceGraphic" in2="effect1_dropShadow_732_230" result="shape"/>
</filter>
<filter id="filter2_i_732_230" x="24.374" y="6.63574" width="72.417" height="84.6562" filterUnits="userSpaceOnUse" color-interpolation-filters="sRGB">
<feFlood flood-opacity="0" result="BackgroundImageFix"/>
<feBlend mode="normal" in="SourceGraphic" in2="BackgroundImageFix" result="shape"/>
<feColorMatrix in="SourceAlpha" type="matrix" values="0 0 0 0 0 0 0 0 0 0 0 0 0 0 0 0 0 0 127 0" result="hardAlpha"/>
<feOffset dy="-2"/>
<feGaussianBlur stdDeviation="3"/>
<feComposite in2="hardAlpha" operator="arithmetic" k2="-1" k3="1"/>
<feColorMatrix type="matrix" values="0 0 0 0 1 0 0 0 0 0.476667 0 0 0 0 0.911495 0 0 0 0.8 0"/>
<feBlend mode="normal" in2="shape" result="effect1_innerShadow_732_230"/>
</filter>
<filter id="filter3_d_732_230" x="46.3479" y="58.6502" width="27.606" height="27.6063" filterUnits="userSpaceOnUse" color-interpolation-filters="sRGB">
<feFlood flood-opacity="0" result="BackgroundImageFix"/>
<feColorMatrix in="SourceAlpha" type="matrix" values="0 0 0 0 0 0 0 0 0 0 0 0 0 0 0 0 0 0 127 0" result="hardAlpha"/>
<feOffset dy="0.899999"/>
<feGaussianBlur stdDeviation="1.35"/>
<feComposite in2="hardAlpha" operator="out"/>
<feColorMatrix type="matrix" values="0 0 0 0 1 0 0 0 0 0.478431 0 0 0 0 0.909804 0 0 0 0.75 0"/>
<feBlend mode="normal" in2="BackgroundImageFix" result="effect1_dropShadow_732_230"/>
<feBlend mode="normal" in="SourceGraphic" in2="effect1_dropShadow_732_230" result="shape"/>
</filter>
<filter id="filter4_d_732_230" x="44.749" y="34.6545" width="30.7832" height="18.0115" filterUnits="userSpaceOnUse" color-interpolation-filters="sRGB">
<feFlood flood-opacity="0" result="BackgroundImageFix"/>
<feColorMatrix in="SourceAlpha" type="matrix" values="0 0 0 0 0 0 0 0 0 0 0 0 0 0 0 0 0 0 127 0" result="hardAlpha"/>
<feOffset dy="1"/>
<feGaussianBlur stdDeviation="3"/>
<feComposite in2="hardAlpha" operator="out"/>
<feColorMatrix type="matrix" values="0 0 0 0 1 0 0 0 0 0.517647 0 0 0 0 0.913725 0 0 0 1 0"/>
<feBlend mode="normal" in2="BackgroundImageFix" result="effect1_dropShadow_732_230"/>
<feBlend mode="normal" in="SourceGraphic" in2="effect1_dropShadow_732_230" result="shape"/>
</filter>
<linearGradient id="paint0_linear_732_230" x1="43.3111" y1="8.63574" x2="43.3111" y2="91.2921" gradientUnits="userSpaceOnUse">
<stop stop-color="#FF5AE5"/>
<stop offset="0.634799" stop-color="#FF5CE5"/>
<stop offset="1" stop-color="#FFD0EF"/>
</linearGradient>
<linearGradient id="paint1_linear_732_230" x1="89.7589" y1="91.2921" x2="42.2623" y2="24.0567" gradientUnits="userSpaceOnUse">
<stop stop-color="#FF8EED"/>
<stop offset="0.515" stop-color="#FFC7EF"/>
<stop offset="1" stop-color="#FFD0EF"/>
</linearGradient>
</defs>
</svg>
