<svg width="30" height="31" viewBox="0 0 30 31" fill="none" xmlns="http://www.w3.org/2000/svg">
<path d="M25.3668 9.20312L11.0147 18.1123L10.9122 18.1854C10.776 18.2598 10.6252 18.2974 10.4728 18.295C10.2986 18.2959 10.1276 18.2453 9.97793 18.1488C9.82828 18.0522 9.70568 17.9133 9.62327 17.7469L9.55589 17.6008L6.87413 11.3256C6.84044 11.2525 6.84044 11.1794 6.84044 11.1063C6.84044 10.8156 7.04403 10.5964 7.31499 10.5964C7.41751 10.5964 7.51857 10.6329 7.6211 10.706L10.7774 13.1128C11.0147 13.259 11.2856 13.3686 11.5918 13.3686C11.7665 13.3676 11.9395 13.3303 12.1015 13.259L24.2199 7.46353C22.1284 4.88196 18.7597 3.17732 14.9019 3.17732C8.42665 3.17732 3.33115 7.97985 3.33115 13.6625C3.33115 15.8326 4.06347 17.909 5.42706 19.6692C5.49883 19.7614 5.60282 19.8869 5.74196 20.0426C6.31741 20.693 6.75867 21.4689 7.03645 22.3185C7.31423 23.1682 7.42216 24.0722 7.35307 24.9706L7.31792 25.444L8.36514 24.7498C9.55137 23.9652 10.9561 23.6634 12.3285 23.8982C12.6375 23.9507 12.8924 23.992 13.0901 24.0206C13.6847 24.1048 14.2896 24.1477 14.9019 24.1477C21.3756 24.1477 26.4726 19.3467 26.4726 13.6625C26.4726 12.0802 26.0771 10.5646 25.3668 9.20312ZM6.39519 29.7763C6.16471 29.9327 5.89864 30.0165 5.62676 30.0182C5.35488 30.0199 5.08792 29.9395 4.85578 29.786C4.62364 29.6325 4.43548 29.4119 4.31236 29.149C4.18924 28.886 4.13603 28.5911 4.15867 28.2972L4.43549 24.7069C4.47004 24.2577 4.41607 23.8057 4.27718 23.3808C4.13829 22.956 3.91766 22.5681 3.62994 22.2429C3.47679 22.0723 3.32878 21.8964 3.18615 21.7154C1.43443 19.4563 0.400391 16.673 0.400391 13.6625C0.400391 6.11635 6.8917 0 14.9004 0C22.9076 0 29.4004 6.11635 29.4004 13.6625C29.4004 21.2086 22.9076 27.325 14.9004 27.325C14.1534 27.325 13.4211 27.2726 12.7034 27.1693C12.4808 27.1375 12.2025 27.093 11.8715 27.0359C11.1851 26.9189 10.4828 27.0703 9.88984 27.4632L6.39519 29.7763Z" fill="white"/>
</svg>
