<svg width="31" height="29" viewBox="0 0 31 29" fill="none" xmlns="http://www.w3.org/2000/svg">
<path d="M28.3462 14.9336L30.5 17.2713L20.4538 28.1972L15.1154 22.3944L17.2692 20.0567L20.4538 23.5052L28.3462 14.9336ZM12.8077 0.841064C14.4398 0.841064 16.005 1.53977 17.1591 2.78347C18.3132 4.02718 18.9615 5.714 18.9615 7.47286C18.9615 9.23172 18.3132 10.9185 17.1591 12.1623C16.005 13.406 14.4398 14.1047 12.8077 14.1047C11.1756 14.1047 9.61034 13.406 8.45627 12.1623C7.3022 10.9185 6.65385 9.23172 6.65385 7.47286C6.65385 5.714 7.3022 4.02718 8.45627 2.78347C9.61034 1.53977 11.1756 0.841064 12.8077 0.841064ZM12.8077 4.15696C11.9916 4.15696 11.209 4.50632 10.632 5.12817C10.0549 5.75002 9.73077 6.59343 9.73077 7.47286C9.73077 8.35229 10.0549 9.1957 10.632 9.81756C11.209 10.4394 11.9916 10.7888 12.8077 10.7888C13.6237 10.7888 14.4064 10.4394 14.9834 9.81756C15.5604 9.1957 15.8846 8.35229 15.8846 7.47286C15.8846 6.59343 15.5604 5.75002 14.9834 5.12817C14.4064 4.50632 13.6237 4.15696 12.8077 4.15696ZM12.8077 15.7626C13.8538 15.7626 15.1154 15.9118 16.5154 16.1937L13.9462 18.9625L12.8077 18.9127C8.23846 18.9127 3.42308 21.3333 3.42308 22.3944V24.2182H12.9615L15.8846 27.3683H0.5V22.3944C0.5 17.9843 8.7 15.7626 12.8077 15.7626Z" fill="white"/>
</svg>
