<svg width="42" height="46" viewBox="0 0 42 46" fill="none" xmlns="http://www.w3.org/2000/svg">
<path d="M31.1295 14.1417C31.6625 14.1417 32.1006 14.3353 32.4435 14.7227C32.7869 15.1069 32.9584 15.6011 32.9584 16.2049V32.7158C32.9584 33.3198 32.7869 33.8109 32.4435 34.1983C32.1006 34.5855 31.6625 34.779 31.1295 34.779H9.1722C8.63936 34.779 8.2014 34.5855 7.85796 34.1983C7.51502 33.8138 7.34326 33.3198 7.34326 32.7158V16.2049C7.34326 15.6039 7.51502 15.1069 7.85796 14.7227C8.2014 14.3353 8.6394 14.1417 9.1722 14.1417H18.3195V10.5298C18.322 10.186 18.4731 10.0127 18.7779 10.0127H21.5213C21.8262 10.0127 21.9799 10.186 21.9799 10.5298V14.1417H31.1295ZM32.0441 16.2049C32.0441 15.5173 31.7391 15.1733 31.1295 15.1733H21.9799V16.7222C21.9799 17.0688 21.8261 17.2393 21.5213 17.2393H18.7779C18.473 17.2393 18.3194 17.0688 18.3194 16.7222V15.1733H9.1722C8.56253 15.1733 8.25767 15.5202 8.25767 16.205V32.7159C8.25767 33.4036 8.56253 33.7475 9.1722 33.7475H31.1271C31.7364 33.7475 32.0415 33.4036 32.0415 32.7159V16.2049H32.0441ZM18.322 29.1038C18.322 28.1158 18.0066 27.2664 17.3791 26.5553C16.7516 25.8447 15.9963 25.492 15.1201 25.492C14.244 25.492 13.4909 25.8475 12.8608 26.5553C12.2306 27.2632 11.9181 28.1159 11.9181 29.1038C11.9181 29.4505 11.7646 29.6213 11.4597 29.6213C11.1547 29.6213 11.0035 29.4505 11.0035 29.1038C11.0035 27.8152 11.4032 26.7171 12.2049 25.8154C13.0041 24.9112 13.9749 24.4605 15.1201 24.4605C16.2624 24.4605 17.2357 24.9112 18.0351 25.8154C18.8343 26.7171 19.2363 27.8152 19.2363 29.1038C19.2363 29.4505 19.0826 29.6213 18.7778 29.6213C18.473 29.6213 18.322 29.4505 18.322 29.1038ZM16.7209 23.6859C16.2624 24.2033 15.7296 24.4605 15.1201 24.4605C14.5103 24.4605 13.9749 24.2033 13.5188 23.6859C13.0629 23.1687 12.8326 22.5677 12.8326 21.8799C12.8326 21.1923 13.0604 20.5913 13.5188 20.0741C13.9776 19.5569 14.5103 19.2996 15.1201 19.2996C15.7296 19.2996 16.2624 19.5569 16.7209 20.0741C17.1795 20.5913 17.4073 21.1953 17.4073 21.8799C17.4073 22.5678 17.177 23.1717 16.7209 23.6859ZM16.091 20.7848C15.8244 20.4845 15.5018 20.3312 15.1202 20.3312C14.7385 20.3312 14.4156 20.4845 14.1493 20.7822C13.8802 21.0856 13.7471 21.4524 13.7471 21.88C13.7471 22.3107 13.8802 22.6776 14.1467 22.9753C14.4129 23.2786 14.7385 23.4289 15.1202 23.4289C15.5018 23.4289 15.8244 23.2785 16.091 22.9781C16.3573 22.6776 16.4903 22.3107 16.4903 21.8829C16.4903 21.4524 16.3573 21.0855 16.091 20.7848ZM19.2364 16.2049H21.0653V11.0444H19.2364V16.2049ZM28.8421 20.3312H22.4382C22.1334 20.3312 21.9799 20.1608 21.9799 19.814C21.9799 19.4703 22.1335 19.2969 22.4382 19.2969H28.8421C29.147 19.2969 29.3005 19.4703 29.3005 19.814C29.298 20.1608 29.147 20.3312 28.8421 20.3312ZM28.8421 23.4288H22.4382C22.1334 23.4288 21.9799 23.2583 21.9799 22.9116C21.9799 22.5677 22.1335 22.3945 22.4382 22.3945H28.8421C29.147 22.3945 29.3005 22.5678 29.3005 22.9116C29.298 23.2583 29.147 23.4288 28.8421 23.4288ZM28.8421 26.5236H22.4382C22.1334 26.5236 21.9799 26.3531 21.9799 26.0064C21.9799 25.6626 22.1335 25.489 22.4382 25.489H28.8421C29.147 25.489 29.3005 25.6626 29.3005 26.0064C29.298 26.3531 29.147 26.5236 28.8421 26.5236ZM28.8421 29.6213H22.4382C22.1334 29.6213 21.9799 29.4505 21.9799 29.1038C21.9799 28.7599 22.1335 28.5868 22.4382 28.5868H28.8421C29.147 28.5868 29.3005 28.76 29.3005 29.1038C29.298 29.4505 29.147 29.6213 28.8421 29.6213Z" fill="#3478F6"/>
</svg>
