<svg width="46" height="46" viewBox="0 0 46 46" fill="none" xmlns="http://www.w3.org/2000/svg">
<path d="M34.8292 14.1417C35.4305 14.1417 35.9246 14.3353 36.3115 14.7227C36.6989 15.1069 36.8924 15.6011 36.8924 16.2049V32.7158C36.8924 33.3198 36.6989 33.8109 36.3115 34.1983C35.9247 34.5855 35.4305 34.779 34.8292 34.779H10.0602C9.45913 34.779 8.96509 34.5855 8.57768 34.1983C8.19082 33.8138 7.99707 33.3198 7.99707 32.7158V16.2049C7.99707 15.6039 8.19082 15.1069 8.57768 14.7227C8.96509 14.3353 9.45918 14.1417 10.0602 14.1417H20.3788V10.5298C20.3817 10.186 20.5521 10.0127 20.896 10.0127H23.9907C24.3346 10.0127 24.508 10.186 24.508 10.5298V14.1417H34.8292ZM35.861 16.2049C35.861 15.5173 35.5169 15.1733 34.8292 15.1733H24.508V16.7222C24.508 17.0688 24.3345 17.2393 23.9907 17.2393H20.8959C20.552 17.2393 20.3788 17.0688 20.3788 16.7222V15.1733H10.0602C9.37247 15.1733 9.02857 15.5202 9.02857 16.205V32.7159C9.02857 33.4036 9.37247 33.7475 10.0602 33.7475H34.8266C35.5139 33.7475 35.858 33.4036 35.858 32.7159V16.2049H35.861ZM20.3816 29.1038C20.3816 28.1158 20.0259 27.2664 19.3181 26.5553C18.6102 25.8447 17.7581 25.492 16.7698 25.492C15.7814 25.492 14.9319 25.8475 14.2211 26.5553C13.5103 27.2632 13.1578 28.1159 13.1578 29.1038C13.1578 29.4505 12.9845 29.6213 12.6406 29.6213C12.2966 29.6213 12.126 29.4505 12.126 29.1038C12.126 27.8152 12.5769 26.7171 13.4813 25.8154C14.3828 24.9112 15.4779 24.4605 16.7697 24.4605C18.0583 24.4605 19.1563 24.9112 20.058 25.8154C20.9596 26.7171 21.4131 27.8152 21.4131 29.1038C21.4131 29.4505 21.2397 29.6213 20.8958 29.6213C20.552 29.6213 20.3816 29.4505 20.3816 29.1038ZM18.5755 23.6859C18.0584 24.2033 17.4573 24.4605 16.7698 24.4605C16.0818 24.4605 15.478 24.2033 14.9634 23.6859C14.4492 23.1687 14.1893 22.5677 14.1893 21.8799C14.1893 21.1923 14.4464 20.5913 14.9634 20.0741C15.4809 19.5569 16.0818 19.2996 16.7698 19.2996C17.4573 19.2996 18.0584 19.5569 18.5755 20.0741C19.0928 20.5913 19.3499 21.1953 19.3499 21.8799C19.3499 22.5678 19.09 23.1717 18.5755 23.6859ZM17.8649 20.7848C17.5642 20.4845 17.2003 20.3312 16.7698 20.3312C16.3394 20.3312 15.975 20.4845 15.6747 20.7822C15.3711 21.0856 15.221 21.4524 15.221 21.88C15.221 22.3107 15.3711 22.6776 15.6718 22.9753C15.972 23.2786 16.3394 23.4289 16.7698 23.4289C17.2003 23.4289 17.5642 23.2785 17.8649 22.9781C18.1654 22.6776 18.3155 22.3107 18.3155 21.8829C18.3155 21.4524 18.1654 21.0855 17.8649 20.7848ZM21.4132 16.2049H23.4763V11.0444H21.4132V16.2049ZM32.2489 20.3312H25.025C24.6812 20.3312 24.508 20.1608 24.508 19.814C24.508 19.4703 24.6812 19.2969 25.025 19.2969H32.2489C32.5928 19.2969 32.766 19.4703 32.766 19.814C32.7632 20.1608 32.5928 20.3312 32.2489 20.3312ZM32.2489 23.4288H25.025C24.6812 23.4288 24.508 23.2583 24.508 22.9116C24.508 22.5677 24.6812 22.3945 25.025 22.3945H32.2489C32.5928 22.3945 32.766 22.5678 32.766 22.9116C32.7632 23.2583 32.5928 23.4288 32.2489 23.4288ZM32.2489 26.5236H25.025C24.6812 26.5236 24.508 26.3531 24.508 26.0064C24.508 25.6626 24.6812 25.489 25.025 25.489H32.2489C32.5928 25.489 32.766 25.6626 32.766 26.0064C32.7632 26.3531 32.5928 26.5236 32.2489 26.5236ZM32.2489 29.6213H25.025C24.6812 29.6213 24.508 29.4505 24.508 29.1038C24.508 28.7599 24.6812 28.5868 25.025 28.5868H32.2489C32.5928 28.5868 32.766 28.76 32.766 29.1038C32.7632 29.4505 32.5928 29.6213 32.2489 29.6213Z" fill="#3478F6"/>
</svg>
