<svg width="100" height="99" viewBox="0 0 100 99" fill="none" xmlns="http://www.w3.org/2000/svg">
<path d="M88.2998 68.2017C89.0142 68.2017 89.6993 68.4855 90.2044 68.9906C90.7096 69.4957 90.9933 70.1809 90.9933 70.8952V78.9758C90.9933 79.3295 90.9237 79.6798 90.7883 80.0066C90.6529 80.3334 90.4545 80.6303 90.2044 80.8804C89.9543 81.1305 89.6574 81.3289 89.3306 81.4643C89.0038 81.5997 88.6535 81.6693 88.2998 81.6693H12.881C12.5273 81.6693 12.1771 81.5997 11.8503 81.4643C11.5235 81.3289 11.2265 81.1305 10.9764 80.8804C10.7263 80.6303 10.5279 80.3334 10.3925 80.0066C10.2572 79.6798 10.1875 79.3295 10.1875 78.9758V70.8952C10.1875 70.1809 10.4713 69.4957 10.9764 68.9906C11.4816 68.4855 12.1667 68.2017 12.881 68.2017V64.1614C12.881 44.2401 28.3284 27.9281 47.8969 26.5463V22.4117H45.2034C44.8496 22.4117 44.4994 22.342 44.1726 22.2067C43.8458 22.0713 43.5489 21.8729 43.2988 21.6228C43.0486 21.3727 42.8502 21.0757 42.7149 20.749C42.5795 20.4222 42.5098 20.0719 42.5098 19.7182C42.5098 19.3645 42.5795 19.0142 42.7149 18.6874C42.8502 18.3606 43.0486 18.0637 43.2988 17.8136C43.5489 17.5635 43.8458 17.3651 44.1726 17.2297C44.4994 17.0943 44.8496 17.0247 45.2034 17.0247H55.9775C56.3312 17.0247 56.6815 17.0943 57.0082 17.2297C57.335 17.3651 57.632 17.5635 57.8821 17.8136C58.1322 18.0637 58.3306 18.3606 58.466 18.6874C58.6013 19.0142 58.671 19.3645 58.671 19.7182C58.671 20.0719 58.6013 20.4222 58.466 20.749C58.3306 21.0757 58.1322 21.3727 57.8821 21.6228C57.632 21.8729 57.335 22.0713 57.0082 22.2067C56.6815 22.342 56.3312 22.4117 55.9775 22.4117H53.284V26.5463C72.8524 27.9281 88.2998 44.2401 88.2998 64.1614V68.2017ZM85.6063 73.5887H15.5746V76.2823H85.6063V73.5887Z" fill="url(#paint0_linear_779_333)"/>
<g filter="url(#filter0_d_779_333)">
<path d="M28.0752 50.9903C28.0752 50.9903 28.5906 43.6316 37.3519 39.4775" stroke="white" stroke-width="4" stroke-miterlimit="10" stroke-linecap="round" shape-rendering="crispEdges"/>
</g>
<defs>
<filter id="filter0_d_779_333" x="20.0752" y="29.4771" width="25.2773" height="27.5134" filterUnits="userSpaceOnUse" color-interpolation-filters="sRGB">
<feFlood flood-opacity="0" result="BackgroundImageFix"/>
<feColorMatrix in="SourceAlpha" type="matrix" values="0 0 0 0 0 0 0 0 0 0 0 0 0 0 0 0 0 0 127 0" result="hardAlpha"/>
<feOffset dy="-2"/>
<feGaussianBlur stdDeviation="3"/>
<feComposite in2="hardAlpha" operator="out"/>
<feColorMatrix type="matrix" values="0 0 0 0 0.517647 0 0 0 0 0.435294 0 0 0 0 1 0 0 0 1 0"/>
<feBlend mode="normal" in2="BackgroundImageFix" result="effect1_dropShadow_779_333"/>
<feBlend mode="normal" in="SourceGraphic" in2="effect1_dropShadow_779_333" result="shape"/>
</filter>
<linearGradient id="paint0_linear_779_333" x1="50.5904" y1="17.0247" x2="50.5904" y2="81.6693" gradientUnits="userSpaceOnUse">
<stop stop-color="#836FFF"/>
<stop offset="1" stop-color="#BD95FF"/>
</linearGradient>
</defs>
</svg>
