<svg width="99" height="99" viewBox="0 0 99 99" fill="none" xmlns="http://www.w3.org/2000/svg">
<g filter="url(#filter0_i_779_378)">
<path d="M80.4921 34.146C77.3061 19.5235 64.4686 8.58044 49.0777 8.58044C33.6165 8.58044 20.7087 19.6422 17.593 34.3596C7.3558 38.0627 0 47.9613 0 59.6166C0 74.4289 11.8536 86.4639 26.4949 86.4639C35.9591 86.4639 44.2519 81.4078 48.9371 73.8354C48.984 73.8354 49.0308 73.8354 49.0777 73.8354C49.2885 73.8354 49.4993 73.8117 49.7336 73.8117C54.4188 81.4078 62.7117 86.4639 72.1992 86.4639C86.8171 86.4639 98.6942 74.4526 98.6942 59.6166C98.6707 47.7477 91.0338 37.6829 80.4921 34.146Z" fill="url(#paint0_linear_779_378)"/>
</g>
<path d="M66.7182 57.8602C54.9583 59.4268 43.9715 53.3737 38.56 43.4751C29.1896 48.2701 23.3565 58.691 24.8089 69.824C26.6362 83.9479 39.4268 93.8703 53.3653 92.0187C67.3039 90.1672 77.096 77.2064 75.2687 63.0825C74.9408 60.6137 74.2614 58.2637 73.3244 56.1036C71.216 56.9344 69.014 57.5516 66.7182 57.8602Z" fill="#FEF9EE"/>
<path d="M51.6797 76.9349C46.8672 77.5304 42.2778 75.9216 38.8853 72.9209C38.6125 74.1506 38.5344 75.428 38.6947 76.7237C39.4434 82.7781 44.888 87.1035 50.8863 86.3614C56.8845 85.6193 61.1143 80.1209 60.3627 74.0429C60.3248 73.7366 60.2666 73.4568 60.2084 73.177C57.8375 75.1924 54.9346 76.5322 51.6797 76.9349Z" fill="#FF8B20"/>
<g filter="url(#filter1_d_779_378)">
<path d="M28.04 32.271C28.04 32.271 28.5554 24.9123 37.3168 20.7582" stroke="white" stroke-width="4" stroke-miterlimit="10" stroke-linecap="round" shape-rendering="crispEdges"/>
</g>
<defs>
<filter id="filter0_i_779_378" x="0" y="6.58044" width="98.6943" height="79.8834" filterUnits="userSpaceOnUse" color-interpolation-filters="sRGB">
<feFlood flood-opacity="0" result="BackgroundImageFix"/>
<feBlend mode="normal" in="SourceGraphic" in2="BackgroundImageFix" result="shape"/>
<feColorMatrix in="SourceAlpha" type="matrix" values="0 0 0 0 0 0 0 0 0 0 0 0 0 0 0 0 0 0 127 0" result="hardAlpha"/>
<feOffset dy="-2"/>
<feGaussianBlur stdDeviation="3"/>
<feComposite in2="hardAlpha" operator="arithmetic" k2="-1" k3="1"/>
<feColorMatrix type="matrix" values="0 0 0 0 1 0 0 0 0 0.721569 0 0 0 0 0.0784314 0 0 0 0.8 0"/>
<feBlend mode="normal" in2="shape" result="effect1_innerShadow_779_378"/>
</filter>
<filter id="filter1_d_779_378" x="20.04" y="10.7577" width="25.2773" height="27.5133" filterUnits="userSpaceOnUse" color-interpolation-filters="sRGB">
<feFlood flood-opacity="0" result="BackgroundImageFix"/>
<feColorMatrix in="SourceAlpha" type="matrix" values="0 0 0 0 0 0 0 0 0 0 0 0 0 0 0 0 0 0 127 0" result="hardAlpha"/>
<feOffset dy="-2"/>
<feGaussianBlur stdDeviation="3"/>
<feComposite in2="hardAlpha" operator="out"/>
<feColorMatrix type="matrix" values="0 0 0 0 0.996078 0 0 0 0 0.54902 0 0 0 0 0 0 0 0 0.6 0"/>
<feBlend mode="normal" in2="BackgroundImageFix" result="effect1_dropShadow_779_378"/>
<feBlend mode="normal" in="SourceGraphic" in2="effect1_dropShadow_779_378" result="shape"/>
</filter>
<linearGradient id="paint0_linear_779_378" x1="79.199" y1="86.4628" x2="41.0754" y2="0.54844" gradientUnits="userSpaceOnUse">
<stop stop-color="#FFD911"/>
<stop offset="1" stop-color="#FFEA86"/>
</linearGradient>
</defs>
</svg>
