<svg width="100" height="99" viewBox="0 0 100 99" fill="none" xmlns="http://www.w3.org/2000/svg">
<g filter="url(#filter0_i_779_318)">
<path d="M92.2901 61.644H9.19386C5.82539 61.644 3.0791 58.8978 3.0791 55.5293V14.7C3.0791 11.3315 5.82539 8.58521 9.19386 8.58521H92.2901C95.6586 8.58521 98.4048 11.3315 98.4048 14.7V55.5293C98.4048 58.8978 95.6586 61.644 92.2901 61.644Z" fill="url(#paint0_linear_779_318)"/>
</g>
<g filter="url(#filter1_d_779_318)">
<path d="M14.2783 18.433H26.1431" stroke="white" stroke-width="4" stroke-miterlimit="10" stroke-linecap="round"/>
</g>
<path d="M88.0413 51.7313H14.0636C12.5188 51.7313 11.2529 50.4654 11.2529 48.9207V45.2518C11.2529 43.707 12.5188 42.4412 14.0636 42.4412H88.0413C89.5861 42.4412 90.8519 43.707 90.8519 45.2518V48.9207C90.8519 50.4654 89.5861 51.7313 88.0413 51.7313Z" fill="#277DFF"/>
<path d="M21.25 47.8508H50.7939V88.4012H10.458C10.4795 88.3798 22.9879 76.515 21.25 47.8508Z" fill="#B7E2FF"/>
<path d="M80.2304 47.8508H50.6865V88.4012H91.0224C91.0224 88.3798 78.514 76.515 80.2304 47.8508Z" fill="#D9F0FE"/>
<defs>
<filter id="filter0_i_779_318" x="3.0791" y="6.58521" width="95.3252" height="55.0588" filterUnits="userSpaceOnUse" color-interpolation-filters="sRGB">
<feFlood flood-opacity="0" result="BackgroundImageFix"/>
<feBlend mode="normal" in="SourceGraphic" in2="BackgroundImageFix" result="shape"/>
<feColorMatrix in="SourceAlpha" type="matrix" values="0 0 0 0 0 0 0 0 0 0 0 0 0 0 0 0 0 0 127 0" result="hardAlpha"/>
<feOffset dy="-2"/>
<feGaussianBlur stdDeviation="3"/>
<feComposite in2="hardAlpha" operator="arithmetic" k2="-1" k3="1"/>
<feColorMatrix type="matrix" values="0 0 0 0 0.4975 0 0 0 0 0.671664 0 0 0 0 1 0 0 0 0.8 0"/>
<feBlend mode="normal" in2="shape" result="effect1_innerShadow_779_318"/>
</filter>
<filter id="filter1_d_779_318" x="8.27832" y="12.433" width="23.8652" height="12" filterUnits="userSpaceOnUse" color-interpolation-filters="sRGB">
<feFlood flood-opacity="0" result="BackgroundImageFix"/>
<feColorMatrix in="SourceAlpha" type="matrix" values="0 0 0 0 0 0 0 0 0 0 0 0 0 0 0 0 0 0 127 0" result="hardAlpha"/>
<feOffset/>
<feGaussianBlur stdDeviation="2"/>
<feComposite in2="hardAlpha" operator="out"/>
<feColorMatrix type="matrix" values="0 0 0 0 0.152941 0 0 0 0 0.490196 0 0 0 0 1 0 0 0 0.6 0"/>
<feBlend mode="normal" in2="BackgroundImageFix" result="effect1_dropShadow_779_318"/>
<feBlend mode="normal" in="SourceGraphic" in2="effect1_dropShadow_779_318" result="shape"/>
</filter>
<linearGradient id="paint0_linear_779_318" x1="91.6099" y1="50.5808" x2="10.804" y2="14.1874" gradientUnits="userSpaceOnUse">
<stop stop-color="#4C89FE"/>
<stop offset="1" stop-color="#A2DDFF"/>
</linearGradient>
</defs>
</svg>
