<svg width="100" height="99" viewBox="0 0 100 99" fill="none" xmlns="http://www.w3.org/2000/svg">
<path d="M11.8247 28.2122C11.8247 18.7631 19.4847 11.103 28.9339 11.103C38.383 11.103 46.043 18.7631 46.043 28.2122V42.1898C46.043 43.9193 44.641 45.3213 42.9114 45.3213H28.9339C19.4847 45.3213 11.8247 37.6613 11.8247 28.2122Z" fill="url(#paint0_linear_779_306)"/>
<path d="M11.8247 69.8318C11.8247 60.3827 19.4847 52.7227 28.9339 52.7227H42.9114C44.641 52.7227 46.043 54.1247 46.043 55.8542V69.8318C46.043 79.2809 38.383 86.941 28.9339 86.941C19.4847 86.941 11.8247 79.2809 11.8247 69.8318Z" fill="#C9AAFF"/>
<path d="M53.4458 28.2122C53.4458 18.7631 61.1058 11.103 70.555 11.103C80.0041 11.103 87.6641 18.7631 87.6641 28.2122C87.6641 37.6613 80.0041 45.3213 70.5549 45.3213H56.5774C54.8479 45.3213 53.4458 43.9193 53.4458 42.1898V28.2122Z" fill="#C9AAFF"/>
<path d="M53.4458 55.8542C53.4458 54.1247 54.8479 52.7227 56.5774 52.7227H70.555C80.0041 52.7227 87.6641 60.3827 87.6641 69.8318C87.6641 79.2809 80.0041 86.941 70.555 86.941C61.1058 86.941 53.4458 79.2809 53.4458 69.8318V55.8542Z" fill="#C9AAFF"/>
<defs>
<linearGradient id="paint0_linear_779_306" x1="28.9339" y1="11.103" x2="28.9339" y2="45.3213" gradientUnits="userSpaceOnUse">
<stop stop-color="#755EFD"/>
<stop offset="1" stop-color="#A575F9"/>
</linearGradient>
</defs>
</svg>
