<svg width="99" height="99" viewBox="0 0 99 99" fill="none" xmlns="http://www.w3.org/2000/svg">
<path d="M85.5463 87.6842H12.4289C9.07258 87.6842 6.35352 84.9651 6.35352 81.6087V17.1785C6.35352 13.8221 9.07258 11.103 12.4289 11.103H85.5463C88.9026 11.103 91.6217 13.8221 91.6217 17.1785V81.5875C91.6217 84.9651 88.9026 87.6842 85.5463 87.6842Z" fill="url(#paint0_linear_779_206)"/>
<path d="M83.2742 81.8853H51.665V16.9028H83.2742C85.186 16.9028 86.7155 18.4536 86.7155 20.3442V78.4227C86.7367 80.3346 85.186 81.8853 83.2742 81.8853Z" fill="#FFCFCE"/>
<path d="M14.8937 81.8853H46.5028V16.9028H14.8937C12.9818 16.9028 11.4524 18.4536 11.4524 20.3442V78.4227C11.4311 80.3346 12.9818 81.8853 14.8937 81.8853Z" fill="#C90C01"/>
<path opacity="0.6" d="M11.4098 19.7692C11.4098 19.7692 11.7709 17.8574 13.2154 18.3672C14.6599 18.877 25.7486 28.1178 25.7486 28.1178L25.6424 81.7777L14.1925 81.8839C14.1925 81.8839 11.1973 81.8839 11.3035 77.6566C11.4098 73.4504 11.4098 19.7692 11.4098 19.7692Z" fill="url(#paint1_linear_779_206)"/>
<g filter="url(#filter0_d_779_206)">
<path d="M59.4014 41.9448L59.4014 55.9841" stroke="white" stroke-width="4" stroke-miterlimit="10" stroke-linecap="round"/>
</g>
<g opacity="0.9">
<circle cx="13.7552" cy="20.9724" r="1.23368" fill="white"/>
<circle cx="13.7552" cy="27.1409" r="1.23368" fill="white"/>
<circle cx="13.7552" cy="33.3091" r="1.23368" fill="white"/>
<circle cx="13.7552" cy="39.4776" r="1.23368" fill="white"/>
<circle cx="13.7552" cy="45.646" r="1.23368" fill="white"/>
<circle cx="13.7552" cy="51.8142" r="1.23368" fill="white"/>
<circle cx="13.7552" cy="57.9827" r="1.23368" fill="white"/>
<circle cx="13.7552" cy="64.1512" r="1.23368" fill="white"/>
<circle cx="13.7552" cy="70.3194" r="1.23368" fill="white"/>
<circle cx="13.7552" cy="76.4878" r="1.23368" fill="white"/>
<circle cx="18.6897" cy="20.9724" r="1.23368" fill="white"/>
<circle cx="18.6897" cy="27.1409" r="1.23368" fill="white"/>
<circle cx="18.6897" cy="33.3091" r="1.23368" fill="white"/>
<circle cx="18.6897" cy="39.4776" r="1.23368" fill="white"/>
<circle cx="18.6897" cy="45.646" r="1.23368" fill="white"/>
<circle cx="18.6897" cy="51.8142" r="1.23368" fill="white"/>
<circle cx="18.6897" cy="57.9827" r="1.23368" fill="white"/>
<circle cx="18.6897" cy="64.1512" r="1.23368" fill="white"/>
<circle cx="18.6897" cy="70.3194" r="1.23368" fill="white"/>
<circle cx="18.6897" cy="76.4878" r="1.23368" fill="white"/>
<circle cx="23.6243" cy="20.9724" r="1.23368" fill="white"/>
<circle cx="23.6243" cy="27.1409" r="1.23368" fill="white"/>
<circle cx="23.6243" cy="33.3091" r="1.23368" fill="white"/>
<circle cx="23.6243" cy="39.4776" r="1.23368" fill="white"/>
<circle cx="23.6243" cy="45.646" r="1.23368" fill="white"/>
<circle cx="23.6243" cy="51.8142" r="1.23368" fill="white"/>
<circle cx="23.6243" cy="57.9827" r="1.23368" fill="white"/>
<circle cx="23.6243" cy="64.1512" r="1.23368" fill="white"/>
<circle cx="23.6243" cy="70.3194" r="1.23368" fill="white"/>
<circle cx="23.6243" cy="76.4878" r="1.23368" fill="white"/>
<circle cx="28.5589" cy="20.9724" r="1.23368" fill="white"/>
<circle cx="28.5589" cy="27.1409" r="1.23368" fill="white"/>
<circle cx="28.5589" cy="33.3091" r="1.23368" fill="white"/>
<circle cx="28.5589" cy="39.4776" r="1.23368" fill="white"/>
<circle cx="28.5589" cy="45.646" r="1.23368" fill="white"/>
<circle cx="28.5589" cy="51.8142" r="1.23368" fill="white"/>
<circle cx="28.5589" cy="57.9827" r="1.23368" fill="white"/>
<circle cx="28.5589" cy="64.1512" r="1.23368" fill="white"/>
<circle cx="28.5589" cy="70.3194" r="1.23368" fill="white"/>
<circle cx="28.5589" cy="76.4878" r="1.23368" fill="white"/>
<circle cx="33.4944" cy="20.9724" r="1.23368" fill="white"/>
<circle cx="33.4944" cy="27.1409" r="1.23368" fill="white"/>
<circle cx="33.4944" cy="33.3091" r="1.23368" fill="white"/>
<circle cx="33.4944" cy="39.4776" r="1.23368" fill="white"/>
<circle cx="33.4944" cy="45.646" r="1.23368" fill="white"/>
<circle cx="33.4944" cy="51.8142" r="1.23368" fill="white"/>
<circle cx="33.4944" cy="57.9827" r="1.23368" fill="white"/>
<circle cx="33.4944" cy="64.1512" r="1.23368" fill="white"/>
<circle cx="33.4944" cy="70.3194" r="1.23368" fill="white"/>
<circle cx="33.4944" cy="76.4878" r="1.23368" fill="white"/>
<circle cx="38.429" cy="20.9724" r="1.23368" fill="white"/>
<circle cx="38.429" cy="27.1409" r="1.23368" fill="white"/>
<circle cx="38.429" cy="33.3091" r="1.23368" fill="white"/>
<circle cx="38.429" cy="39.4776" r="1.23368" fill="white"/>
<circle cx="38.429" cy="45.646" r="1.23368" fill="white"/>
<circle cx="38.429" cy="51.8142" r="1.23368" fill="white"/>
<circle cx="38.429" cy="57.9827" r="1.23368" fill="white"/>
<circle cx="38.429" cy="64.1512" r="1.23368" fill="white"/>
<circle cx="38.429" cy="70.3194" r="1.23368" fill="white"/>
<circle cx="38.429" cy="76.4878" r="1.23368" fill="white"/>
<circle cx="43.3636" cy="20.9724" r="1.23368" fill="white"/>
<circle cx="43.3636" cy="27.1409" r="1.23368" fill="white"/>
<circle cx="43.3636" cy="33.3091" r="1.23368" fill="white"/>
<circle cx="43.3636" cy="39.4776" r="1.23368" fill="white"/>
<circle cx="43.3636" cy="45.646" r="1.23368" fill="white"/>
<circle cx="43.3636" cy="51.8142" r="1.23368" fill="white"/>
<circle cx="43.3636" cy="57.9827" r="1.23368" fill="white"/>
<circle cx="43.3636" cy="64.1512" r="1.23368" fill="white"/>
<circle cx="43.3636" cy="70.3194" r="1.23368" fill="white"/>
<circle cx="43.3636" cy="76.4878" r="1.23368" fill="white"/>
</g>
<defs>
<filter id="filter0_d_779_206" x="53.4014" y="37.8248" width="12" height="26.0393" filterUnits="userSpaceOnUse" color-interpolation-filters="sRGB">
<feFlood flood-opacity="0" result="BackgroundImageFix"/>
<feColorMatrix in="SourceAlpha" type="matrix" values="0 0 0 0 0 0 0 0 0 0 0 0 0 0 0 0 0 0 127 0" result="hardAlpha"/>
<feOffset dy="1.88"/>
<feGaussianBlur stdDeviation="2"/>
<feComposite in2="hardAlpha" operator="out"/>
<feColorMatrix type="matrix" values="0 0 0 0 1 0 0 0 0 0.192157 0 0 0 0 0.286275 0 0 0 0.4 0"/>
<feBlend mode="normal" in2="BackgroundImageFix" result="effect1_dropShadow_779_206"/>
<feBlend mode="normal" in="SourceGraphic" in2="effect1_dropShadow_779_206" result="shape"/>
</filter>
<linearGradient id="paint0_linear_779_206" x1="84.952" y1="84.0367" x2="12.7264" y2="11.103" gradientUnits="userSpaceOnUse">
<stop stop-color="#FF2D46"/>
<stop offset="1" stop-color="#FFA5AA"/>
</linearGradient>
<linearGradient id="paint1_linear_779_206" x1="18.5247" y1="18.2808" x2="18.5247" y2="81.8839" gradientUnits="userSpaceOnUse">
<stop stop-color="#FFCFCE"/>
<stop offset="1" stop-color="#FFCFCE" stop-opacity="0.59"/>
</linearGradient>
</defs>
</svg>
