<svg width="100" height="99" viewBox="0 0 100 99" fill="none" xmlns="http://www.w3.org/2000/svg">
<g filter="url('#filter0_i_779_189')">
<path d="M13.6853 31.4584L22.9765 15.7413C23.3695 15.0806 23.9236 14.5337 24.5853 14.1534C25.2471 13.7731 25.9942 13.5722 26.7546 13.5701H48.1688V31.4584H13.6853ZM51.6936 31.4584H86.1771L76.886 15.7413C76.4929 15.0806 75.9388 14.5337 75.2771 14.1534C74.6153 13.7731 73.8683 13.5722 73.1078 13.5701H51.6936V31.4584ZM86.9415 35.0361V80.6513C86.9402 81.837 86.4756 82.9737 85.6496 83.8121C84.8236 84.6505 83.7037 85.122 82.5355 85.1234H17.3269C16.1587 85.122 15.0388 84.6505 14.2128 83.8121C13.3868 82.9737 12.9222 81.837 12.9209 80.6513V35.0361H86.9415Z" fill="url('#paint0_linear_779_189')"></path>
</g>
<g filter="url('#filter1_d_779_189')">
<path d="M37.5947 51.8145H62.2683" stroke="white" stroke-width="4" stroke-miterlimit="10" stroke-linecap="round"></path>
</g>
<defs>
<filter id="filter0_i_779_189" x="12.9209" y="11.5701" width="74.0205" height="73.5532" filterUnits="userSpaceOnUse" color-interpolation-filters="sRGB">
<feFlood flood-opacity="0" result="BackgroundImageFix"></feFlood>
<feBlend mode="normal" in="SourceGraphic" in2="BackgroundImageFix" result="shape"></feBlend>
<feColorMatrix in="SourceAlpha" type="matrix" values="0 0 0 0 0 0 0 0 0 0 0 0 0 0 0 0 0 0 127 0" result="hardAlpha"></feColorMatrix>
<feOffset dy="-2"></feOffset>
<feGaussianBlur stdDeviation="3"></feGaussianBlur>
<feComposite in2="hardAlpha" operator="arithmetic" k2="-1" k3="1"></feComposite>
<feColorMatrix type="matrix" values="0 0 0 0 1 0 0 0 0 0.721077 0 0 0 0 0.0766668 0 0 0 1 0"></feColorMatrix>
<feBlend mode="normal" in2="shape" result="effect1_innerShadow_779_189"></feBlend>
</filter>
<filter id="filter1_d_779_189" x="31.7947" y="47.8145" width="36.2738" height="11.6" filterUnits="userSpaceOnUse" color-interpolation-filters="sRGB">
<feFlood flood-opacity="0" result="BackgroundImageFix"></feFlood>
<feColorMatrix in="SourceAlpha" type="matrix" values="0 0 0 0 0 0 0 0 0 0 0 0 0 0 0 0 0 0 127 0" result="hardAlpha"></feColorMatrix>
<feOffset dy="1.8"></feOffset>
<feGaussianBlur stdDeviation="1.9"></feGaussianBlur>
<feComposite in2="hardAlpha" operator="out"></feComposite>
<feColorMatrix type="matrix" values="0 0 0 0 1 0 0 0 0 0.607843 0 0 0 0 0.0588235 0 0 0 0.6 0"></feColorMatrix>
<feBlend mode="normal" in2="BackgroundImageFix" result="effect1_dropShadow_779_189"></feBlend>
<feBlend mode="normal" in="SourceGraphic" in2="effect1_dropShadow_779_189" result="shape"></feBlend>
</filter>
<linearGradient id="paint0_linear_779_189" x1="70.185" y1="84.539" x2="30.5448" y2="11.6127" gradientUnits="userSpaceOnUse">
<stop stop-color="#FFD911"></stop>
<stop offset="1" stop-color="#FFEA86"></stop>
</linearGradient>
</defs>
</svg>
