<svg width="100" height="99" viewBox="0 0 100 99" fill="none" xmlns="http://www.w3.org/2000/svg">
<path d="M88.1211 68.2017C88.8355 68.2017 89.5206 68.4855 90.0257 68.9906C90.5309 69.4957 90.8146 70.1809 90.8146 70.8952V78.9758C90.8146 79.3295 90.745 79.6798 90.6096 80.0066C90.4742 80.3334 90.2758 80.6303 90.0257 80.8804C89.7756 81.1305 89.4787 81.3289 89.1519 81.4643C88.8251 81.5997 88.4748 81.6693 88.1211 81.6693H12.7023C12.3486 81.6693 11.9983 81.5997 11.6715 81.4643C11.3448 81.3289 11.0478 81.1305 10.7977 80.8804C10.5476 80.6303 10.3492 80.3334 10.2138 80.0066C10.0785 79.6798 10.0088 79.3295 10.0088 78.9758V70.8952C10.0088 70.1809 10.2926 69.4957 10.7977 68.9906C11.3028 68.4855 11.9879 68.2017 12.7023 68.2017V64.1614C12.7023 44.2401 28.1497 27.9281 47.7182 26.5463V22.4117H45.0247C44.6709 22.4117 44.3207 22.342 43.9939 22.2067C43.6671 22.0713 43.3702 21.8729 43.12 21.6228C42.8699 21.3727 42.6715 21.0757 42.5362 20.749C42.4008 20.4222 42.3311 20.0719 42.3311 19.7182C42.3311 19.3645 42.4008 19.0142 42.5362 18.6874C42.6715 18.3606 42.8699 18.0637 43.12 17.8136C43.3702 17.5635 43.6671 17.3651 43.9939 17.2297C44.3207 17.0943 44.6709 17.0247 45.0247 17.0247H55.7988C56.1525 17.0247 56.5027 17.0943 56.8295 17.2297C57.1563 17.3651 57.4533 17.5635 57.7034 17.8136C57.9535 18.0637 58.1519 18.3606 58.2873 18.6874C58.4226 19.0142 58.4923 19.3645 58.4923 19.7182C58.4923 20.0719 58.4226 20.4222 58.2873 20.749C58.1519 21.0757 57.9535 21.3727 57.7034 21.6228C57.4533 21.8729 57.1563 22.0713 56.8295 22.2067C56.5027 22.342 56.1525 22.4117 55.7988 22.4117H53.1052V26.5463C72.6737 27.9281 88.1211 44.2401 88.1211 64.1614V68.2017ZM85.4276 73.5887H15.3958V76.2823H85.4276V73.5887Z" fill="url('#paint0_linear_732_204')"></path>
<g filter="url('#filter0_d_732_204')">
<path d="M27.8965 50.9903C27.8965 50.9903 28.4119 43.6316 37.1732 39.4775" stroke="white" stroke-width="4" stroke-miterlimit="10" stroke-linecap="round" shape-rendering="crispEdges"></path>
</g>
<defs>
<filter id="filter0_d_732_204" x="19.8965" y="29.4771" width="25.2773" height="27.5134" filterUnits="userSpaceOnUse" color-interpolation-filters="sRGB">
<feFlood flood-opacity="0" result="BackgroundImageFix"></feFlood>
<feColorMatrix in="SourceAlpha" type="matrix" values="0 0 0 0 0 0 0 0 0 0 0 0 0 0 0 0 0 0 127 0" result="hardAlpha"></feColorMatrix>
<feOffset dy="-2"></feOffset>
<feGaussianBlur stdDeviation="3"></feGaussianBlur>
<feComposite in2="hardAlpha" operator="out"></feComposite>
<feColorMatrix type="matrix" values="0 0 0 0 0.517647 0 0 0 0 0.435294 0 0 0 0 1 0 0 0 1 0"></feColorMatrix>
<feBlend mode="normal" in2="BackgroundImageFix" result="effect1_dropShadow_732_204"></feBlend>
<feBlend mode="normal" in="SourceGraphic" in2="effect1_dropShadow_732_204" result="shape"></feBlend>
</filter>
<linearGradient id="paint0_linear_732_204" x1="50.4117" y1="17.0247" x2="50.4117" y2="81.6693" gradientUnits="userSpaceOnUse">
<stop stop-color="#836FFF"></stop>
<stop offset="1" stop-color="#BD95FF"></stop>
</linearGradient>
</defs>
</svg>
