<svg width="30" height="36" viewBox="0 0 30 36" fill="none" xmlns="http://www.w3.org/2000/svg">
<path d="M12.0889 24.4822L7.08261 18.722C6.967 18.6024 6.87477 18.4594 6.8113 18.3012C6.74783 18.1431 6.71439 17.9729 6.71294 17.8007C6.71149 17.6285 6.74205 17.4578 6.80285 17.2984C6.86364 17.139 6.95345 16.9942 7.06702 16.8724C7.18059 16.7507 7.31566 16.6544 7.46432 16.5892C7.61299 16.524 7.77228 16.4913 7.93289 16.4928C8.09349 16.4944 8.2522 16.5302 8.39975 16.5983C8.54729 16.6663 8.68071 16.7652 8.79221 16.8891L12.0889 20.6862L20.1487 12.0454C20.3768 11.8095 20.6822 11.6791 20.999 11.6822C21.3159 11.6853 21.619 11.8216 21.843 12.0618C22.0671 12.302 22.1943 12.6269 22.1971 12.9666C22.2 13.3064 22.0783 13.6337 21.8584 13.8782L12.0889 24.4822Z" fill="white"></path>
<path d="M25.1559 35.6097H3.78583C2.7833 35.6044 1.82326 35.175 1.11436 34.415C0.405459 33.6551 0.00499274 32.6258 0 31.551V7.07045C0.00499274 5.99566 0.405459 4.96642 1.11436 4.20642C1.82326 3.44642 2.7833 3.01709 3.78583 3.01174H7.69323C7.85643 3.00686 8.01889 3.03711 8.171 3.10069C8.32311 3.16428 8.46179 3.25991 8.57883 3.38194C8.69588 3.50397 8.78891 3.64992 8.85244 3.81116C8.91597 3.9724 8.9487 4.14566 8.9487 4.32069C8.9487 4.49572 8.91597 4.66898 8.85244 4.83022C8.78891 4.99146 8.69588 5.13741 8.57883 5.25944C8.46179 5.38147 8.32311 5.4771 8.171 5.54069C8.01889 5.60427 7.85643 5.63452 7.69323 5.62964H3.78583C3.43064 5.63309 3.09092 5.78589 2.83975 6.05516C2.58859 6.32443 2.44606 6.68864 2.44284 7.06943V31.551C2.44606 31.9318 2.58859 32.296 2.83975 32.5653C3.09092 32.8346 3.43064 32.9874 3.78583 32.9908H25.1559C25.5111 32.9874 25.8508 32.8346 26.102 32.5653C26.3531 32.296 26.4957 31.9318 26.4989 31.551V7.07045C26.4957 6.68966 26.3531 6.32545 26.102 6.05618C25.8508 5.78691 25.5111 5.63411 25.1559 5.63066H22.3474C22.0295 5.62115 21.7276 5.47907 21.5058 5.23463C21.2841 4.9902 21.16 4.66268 21.16 4.32171C21.16 3.98074 21.2841 3.65322 21.5058 3.40878C21.7276 3.16434 22.0295 3.02226 22.3474 3.01276H25.2784C26.281 3.01811 27.241 3.44744 27.9499 4.20744C28.6588 4.96744 29.0593 5.99668 29.0643 7.07147V31.5531C29.011 32.6334 28.5784 33.6521 27.8534 34.4045C27.1285 35.157 26.1648 35.5876 25.1559 35.6097Z" fill="white"></path>
<path d="M21.0034 8.6408H9.03614C8.73136 8.64107 8.42952 8.57691 8.14789 8.45199C7.86627 8.32707 7.61038 8.14385 7.39487 7.91281C7.17936 7.68176 7.00845 7.40743 6.89194 7.1055C6.77542 6.80358 6.71557 6.47998 6.71582 6.15324V2.48757C6.71557 2.16082 6.77542 1.83722 6.89194 1.5353C7.00845 1.23337 7.17936 0.959039 7.39487 0.727994C7.61038 0.496949 7.86627 0.313727 8.14789 0.18881C8.42952 0.0638931 8.73136 -0.000266992 9.03614 8.3505e-07H21.0034C21.3082 -0.000266992 21.61 0.0638931 21.8916 0.18881C22.1733 0.313727 22.4291 0.496949 22.6447 0.727994C22.8602 0.959039 23.0311 1.23337 23.1476 1.5353C23.2641 1.83722 23.3239 2.16082 23.3237 2.48757V6.15324C23.3239 6.47998 23.2641 6.80358 23.1476 7.1055C23.0311 7.40743 22.8602 7.68176 22.6447 7.91281C22.4291 8.14385 22.1733 8.32707 21.8916 8.45199C21.61 8.57691 21.3082 8.64107 21.0034 8.6408ZM9.28023 6.02188H20.8809V2.74925H9.28023V6.02188Z" fill="white"></path>
</svg>
