<svg width="32" height="31" viewBox="0 0 32 31" fill="none" xmlns="http://www.w3.org/2000/svg">
<path d="M16.0996 0C7.54693 0 0.599609 6.94732 0.599609 15.5C0.599609 24.0527 7.54693 31 16.0996 31C24.6523 31 31.5996 24.0527 31.5996 15.5C31.5996 6.94732 24.6523 0 16.0996 0ZM2.81389 15.5C2.81389 8.16518 8.76479 2.21429 16.0996 2.21429C23.4344 2.21429 29.3853 8.16518 29.3853 15.5C29.3853 18.3786 28.4719 21.008 26.9219 23.1946L19.8639 16.1366C21.0541 13.6732 20.6112 10.6286 18.563 8.58036C16.7362 6.75357 14.1344 6.22768 11.8648 6.94732C11.7818 7.3625 11.7541 7.47321 11.671 7.88839L13.8853 9.96428V11.9018L12.5014 13.2857H10.5639L8.488 11.0714C8.07282 11.1545 7.96211 11.1821 7.54693 11.2652C6.82729 13.5625 7.38086 16.1643 9.17997 17.9911C11.2282 20.0393 14.2728 20.4545 16.7362 19.292L23.7943 26.35C21.6353 27.9 18.9782 28.8134 16.0996 28.8134C8.76479 28.7857 2.81389 22.8348 2.81389 15.5Z" fill="white"></path>
</svg>
