<svg width="32" height="31" viewBox="0 0 32 31" fill="none" xmlns="http://www.w3.org/2000/svg">
<path d="M1.80802 8.17846C2.75118 8.10753 3.57088 8.85788 3.65232 9.85962L3.65456 9.89003C4.04988 15.8809 7.01572 19.7576 12.8144 21.7795L12.991 21.8403C13.6995 22.0804 14.1839 22.7764 14.1967 23.5675L14.197 23.5996V28.1367C14.197 29.1561 13.4227 29.9826 12.4677 29.9826C11.5222 29.9826 10.7539 29.1726 10.7386 28.1672L10.7384 28.1367L10.7384 24.9129L10.6771 24.8884C4.31004 22.3069 0.752086 17.398 0.220643 10.3767L0.204542 10.1495C0.137431 9.13254 0.855341 8.25009 1.80802 8.17846ZM29.5924 8.21415C28.6492 8.14323 27.8295 8.89357 27.7481 9.89531L27.7458 9.92572C27.3505 15.9166 24.3847 19.7933 18.586 21.8152L18.4094 21.876C17.7009 22.1161 17.2165 22.8121 17.2037 23.6032L17.2034 23.6353V28.1724C17.2034 29.1918 17.9777 30.0182 18.9327 30.0182C19.8782 30.0182 20.6465 29.2083 20.6618 28.2029L20.662 28.1724L20.662 24.9486L20.7233 24.9241C27.0904 22.3426 30.6483 17.4337 31.1797 10.4124L31.1958 10.1851C31.263 9.16824 30.545 8.28579 29.5924 8.21415ZM19.8667 0C22.7719 0 25.0202 2.36312 25.0202 5.41599C25.0202 8.52186 22.8259 11.1189 19.3203 14.5584L19.0647 14.8086L18.8045 15.0617L18.6728 15.1895L18.406 15.4475L18.1349 15.7088L17.7203 16.1072L17.0089 16.7896L16.4624 17.3045C16.0053 17.7353 15.3234 17.7419 14.8593 17.3243L14.8377 17.3045L14.2912 16.7896L13.4406 15.9735L13.1653 15.7088L12.7603 15.3181C12.716 15.2753 12.6717 15.2324 12.6274 15.1895L12.365 14.9348C12.3217 14.8926 12.2785 14.8505 12.2355 14.8086L11.9798 14.5584C8.47432 11.1189 6.27994 8.52186 6.27994 5.41599C6.27994 2.36312 8.52824 0 11.4335 0C13.0733 0 14.6188 0.787684 15.6501 2.06805C16.6813 0.78772 18.2269 0 19.8667 0Z" fill="white"></path>
</svg>
