<svg width="48" height="51" viewBox="0 0 48 51" fill="none" xmlns="http://www.w3.org/2000/svg">
<path d="M24.25 0C30.4826 0 36.4599 2.65435 40.867 7.37912C45.2741 12.1039 47.75 18.5121 47.75 25.1939C47.75 31.8757 45.2741 38.2839 40.867 43.0087C36.4599 47.7334 30.4826 50.3878 24.25 50.3878C18.0174 50.3878 12.0401 47.7334 7.63299 43.0087C3.22589 38.2839 0.75 31.8757 0.75 25.1939C0.75 18.5121 3.22589 12.1039 7.63299 7.37912C12.0401 2.65435 18.0174 0 24.25 0ZM5.15625 25.1939C5.15625 30.6229 7.16791 35.8295 10.7487 39.6684C14.3295 43.5073 19.186 45.6639 24.25 45.6639C29.314 45.6639 34.1705 43.5073 37.7513 39.6684C41.3321 35.8295 43.3438 30.6229 43.3438 25.1939C43.3438 19.7649 41.3321 14.5583 37.7513 10.7194C34.1705 6.88051 29.314 4.72385 24.25 4.72385C19.186 4.72385 14.3295 6.88051 10.7487 10.7194C7.16791 14.5583 5.15625 19.7649 5.15625 25.1939ZM19.4883 16.4611L32.0138 24.52C32.1221 24.59 32.2116 24.6889 32.2737 24.807C32.3359 24.925 32.3685 25.0583 32.3685 25.1939C32.3685 25.3295 32.3359 25.4627 32.2737 25.5808C32.2116 25.6989 32.1221 25.7977 32.0138 25.8678L19.4883 33.9267C19.3769 33.9986 19.2497 34.0376 19.1197 34.0396C18.9897 34.0415 18.8615 34.0064 18.7483 33.9379C18.6351 33.8694 18.5408 33.7698 18.4753 33.6494C18.4097 33.5291 18.3751 33.3922 18.375 33.2528V17.1381C18.3746 16.9985 18.4088 16.8612 18.4741 16.7404C18.5395 16.6196 18.6337 16.5196 18.747 16.4507C18.8603 16.3817 18.9887 16.3464 19.119 16.3482C19.2492 16.35 19.3767 16.389 19.4883 16.4611Z" fill="#3478F6"></path>
</svg>
